<svg width="223" height="217" viewBox="0 0 223 217" fill="none" xmlns="http://www.w3.org/2000/svg">
<rect width="223" height="217" fill="#E5E5E5"/>
<rect width="223" height="217" fill="white"/>
<path d="M4.98438 176.727L5.0625 174.07C5.55729 173.914 6.42969 173.719 7.67969 173.484C9.6849 173.094 10.8958 172.742 11.3125 172.43C11.7552 172.117 12.2891 171.362 12.9141 170.164L20.8047 149.5L30.0625 125.203C30.9219 125.229 31.7422 125.242 32.5234 125.242H34.2812L34.6328 125.945L41.4297 142.039C42.9661 145.451 44.3464 148.771 45.5703 152C46.7943 155.203 47.849 157.82 48.7344 159.852C49.2552 161.076 49.9714 162.911 50.8828 165.359C51.3516 166.688 52.0677 168.354 53.0312 170.359C53.5521 171.453 53.9427 172.091 54.2031 172.273C54.6719 172.664 55.4271 172.924 56.4688 173.055C57.5365 173.185 58.6823 173.484 59.9062 173.953C60.0365 174.812 60.1016 175.451 60.1016 175.867C60.1016 176.049 60.0885 176.336 60.0625 176.727C58.1354 176.727 56.013 176.635 53.6953 176.453C51.3776 176.271 49.2943 176.18 47.4453 176.18C45.388 176.18 43.9036 176.206 42.9922 176.258L36.3516 176.609L34.4375 176.688C34.4375 175.776 34.4766 174.904 34.5547 174.07L38.8906 173.133C40.1927 172.794 40.9479 172.534 41.1562 172.352C41.4167 172.091 41.5469 171.792 41.5469 171.453C41.5469 171.115 41.4818 170.763 41.3516 170.398L39.7891 166.57L36.7031 158.914L21.7812 158.875C21.2344 160.125 20.1016 163.185 18.3828 168.055C17.888 169.435 17.6406 170.372 17.6406 170.867C17.6406 171.544 17.8229 172.026 18.1875 172.312C18.7865 172.807 19.9323 173.159 21.625 173.367C21.8594 173.419 22.7839 173.562 24.3984 173.797C24.4245 174.734 24.4375 175.385 24.4375 175.75C24.4375 176.036 24.4115 176.336 24.3594 176.648C22.7448 176.648 18.8906 176.427 12.7969 175.984L11.1953 176.258C9.26823 176.57 7.43229 176.727 5.6875 176.727H4.98438ZM23.3438 154.773C29.4375 154.852 33.0312 154.891 34.125 154.891L35.1016 154.852C34.3203 152.534 33.3047 149.839 32.0547 146.766C30.8047 143.667 29.7891 141.31 29.0078 139.695L23.3438 154.773ZM60.0234 174.852C60.362 174.565 60.8047 174.357 61.3516 174.227C62.6797 173.94 63.9427 173.419 65.1406 172.664C65.375 172.039 65.4922 169.93 65.4922 166.336C65.4922 159.747 65.349 155.294 65.0625 152.977C65.0104 152.56 64.8021 152.195 64.4375 151.883C63.7865 151.544 62.901 151.245 61.7812 150.984C61.2604 150.854 60.9479 150.568 60.8438 150.125L60.7266 148.68C62.6536 148.419 64.3984 147.768 65.9609 146.727C67.5234 145.659 68.6953 144.578 69.4766 143.484C69.8932 142.885 70.2578 142.43 70.5703 142.117L73.3047 142C73.4349 142.599 73.5 143.094 73.5 143.484C73.5 143.771 73.487 144.122 73.4609 144.539C73.4349 145.451 73.4219 146.206 73.4219 146.805C73.4219 147.091 73.4349 148.172 73.4609 150.047C74.5286 148.224 75.3099 147 75.8047 146.375C76.0391 146.089 76.7292 145.451 77.875 144.461C78.7604 143.81 79.763 143.484 80.8828 143.484C82.263 143.484 83.4609 143.953 84.4766 144.891C85.4922 145.828 86 146.909 86 148.133C86 149.357 85.6094 150.464 84.8281 151.453C84.0729 152.417 83.0573 152.898 81.7812 152.898C80.6615 152.898 79.4896 152.43 78.2656 151.492C77.5365 150.919 76.9505 150.633 76.5078 150.633L76.2344 150.672C75.6875 150.854 75.1927 151.349 74.75 152.156C74.0208 153.458 73.6562 154.812 73.6562 156.219L73.7344 157.273C73.8385 159.201 73.9167 163.719 73.9688 170.828C74.0469 171.479 74.2943 172.13 74.7109 172.781C75.1797 173.146 75.6484 173.406 76.1172 173.562C76.612 173.719 77.4583 173.849 78.6562 173.953C79.8542 174.057 80.5833 174.227 80.8438 174.461C81.1042 174.669 81.2344 175.021 81.2344 175.516C81.2344 175.802 81.1562 176.18 81 176.648H77.3281L69.8672 176.258C67.9922 176.258 66.2865 176.336 64.75 176.492H64.0859C63.9036 176.492 62.5495 176.557 60.0234 176.688C59.9453 176.271 59.9062 175.958 59.9062 175.75C59.9062 175.542 59.9453 175.242 60.0234 174.852ZM90.1406 156.062C90.8177 153.849 91.4167 152.378 91.9375 151.648C93.3958 149.513 94.9453 147.846 96.5859 146.648C98.2526 145.451 99.75 144.656 101.078 144.266C102.797 143.771 104.19 143.523 105.258 143.523C107.706 143.523 109.685 143.719 111.195 144.109C112.706 144.474 113.969 145.008 114.984 145.711C116.443 146.727 117.615 147.755 118.5 148.797C119.385 149.839 120.102 151.062 120.648 152.469C121.221 153.875 121.534 155.581 121.586 157.586L117.25 157.508C116.052 157.508 113.422 157.391 109.359 157.156C107.849 157.052 106.807 157 106.234 157C106.052 157 104.646 157.013 102.016 157.039H98.6562C98.6042 157.404 98.5781 157.716 98.5781 157.977C98.5781 159.357 98.7474 160.815 99.0859 162.352C99.4245 163.862 99.9323 165.203 100.609 166.375C101.286 167.521 102.12 168.51 103.109 169.344C104.125 170.177 105.167 170.776 106.234 171.141L108.5 171.883C110.505 171.883 111.846 171.818 112.523 171.688C113.773 171.427 114.867 171.102 115.805 170.711C116.768 170.294 117.927 169.604 119.281 168.641C120.219 169.318 121 169.93 121.625 170.477C119.333 173.003 116.951 174.839 114.477 175.984C112.029 177.104 109.281 177.664 106.234 177.664C104.177 177.664 102.497 177.482 101.195 177.117C99.4505 176.648 97.875 175.932 96.4688 174.969C95.0625 174.005 93.8516 172.807 92.8359 171.375C91.8203 169.943 91.0651 168.471 90.5703 166.961C89.9193 164.982 89.5938 163.393 89.5938 162.195C89.5938 159.93 89.776 157.885 90.1406 156.062ZM112.836 154.383C112.81 152.924 112.523 151.531 111.977 150.203C111.43 148.875 110.583 147.846 109.438 147.117C108.292 146.362 107.133 145.984 105.961 145.984C104.216 145.984 102.641 146.753 101.234 148.289C99.8281 149.826 99.0339 151.909 98.8516 154.539L107.758 154.578C108.331 154.578 109.138 154.539 110.18 154.461C110.935 154.383 111.469 154.344 111.781 154.344C112.016 154.344 112.367 154.357 112.836 154.383ZM125.883 174.773C126.56 174.461 127.185 174.253 127.758 174.148C129.19 173.914 130.023 173.719 130.258 173.562C130.648 173.328 130.909 173.042 131.039 172.703C131.195 172.182 131.273 171.036 131.273 169.266V165.867L131.312 163.094L131.195 158.992V156.531C131.195 154.891 131.065 153.549 130.805 152.508C130.701 152.117 130.375 151.727 129.828 151.336C129.099 150.815 127.862 150.307 126.117 149.812L126.078 147.938C126.417 147.833 126.716 147.768 126.977 147.742C127.263 147.69 128.318 147.43 130.141 146.961C131.573 146.44 132.497 146.076 132.914 145.867C133.044 145.789 133.253 145.672 133.539 145.516C133.852 145.255 134.203 144.995 134.594 144.734C135.375 144.188 136.312 143.237 137.406 141.883L139.477 141.727L139.398 146.141C139.372 146.583 139.359 146.935 139.359 147.195C139.359 147.404 139.372 148.003 139.398 148.992C141.56 147.117 143.526 145.815 145.297 145.086C147.615 144.122 149.815 143.641 151.898 143.641C154.346 143.641 156.495 144.253 158.344 145.477C160.193 146.674 161.404 148.068 161.977 149.656C162.549 151.245 162.836 154.448 162.836 159.266L162.68 172C162.68 172.599 162.784 173.094 162.992 173.484C163.253 173.693 163.969 173.888 165.141 174.07L167.055 174.422C167.289 174.76 167.406 175.177 167.406 175.672C167.406 175.984 167.393 176.414 167.367 176.961L159.711 176.414L157.445 176.492H155.648L150.492 176.883H149.164C149.138 176.544 149.125 176.284 149.125 176.102C149.125 175.633 149.151 175.125 149.203 174.578C149.568 174.5 150.479 174.37 151.938 174.188C152.328 174.135 152.758 174.044 153.227 173.914C153.747 173.706 154.047 173.497 154.125 173.289C154.333 172.846 154.438 172 154.438 170.75C154.438 168.562 154.411 166.883 154.359 165.711L154.398 161.18C154.424 155.685 154.086 152.26 153.383 150.906C152.393 148.953 150.909 147.977 148.93 147.977C147.471 147.977 145.961 148.354 144.398 149.109C142.836 149.839 141.221 150.958 139.555 152.469L139.477 153.133L139.555 155.594L139.516 158.211L139.672 164.461L139.594 165.438C139.594 169.682 139.763 172.078 140.102 172.625C140.44 173.172 141.729 173.771 143.969 174.422C144.047 174.865 144.086 175.19 144.086 175.398C144.086 175.711 143.995 176.193 143.812 176.844C143.005 176.87 142.328 176.883 141.781 176.883C141.234 176.883 140.375 176.805 139.203 176.648L135.023 176.57C132.94 176.57 129.932 176.661 126 176.844C125.896 176.583 125.844 176.31 125.844 176.023C125.844 175.815 125.857 175.398 125.883 174.773ZM175.219 130.164C175.219 128.758 175.674 127.612 176.586 126.727C177.497 125.815 178.669 125.359 180.102 125.359C181.638 125.359 182.914 125.841 183.93 126.805C184.945 127.742 185.453 128.81 185.453 130.008C185.453 130.893 185.245 131.779 184.828 132.664C184.438 133.549 183.799 134.266 182.914 134.812C182.055 135.333 181.169 135.594 180.258 135.594C179.008 135.594 177.849 135.06 176.781 133.992C175.74 132.924 175.219 131.648 175.219 130.164ZM169.75 176.766L169.672 174.227L174.086 173.641C174.737 173.458 175.18 173.198 175.414 172.859C175.674 172.495 175.805 171.701 175.805 170.477V170.047C175.805 169.734 175.818 169.174 175.844 168.367C175.896 167.534 175.922 166.805 175.922 166.18C175.922 165.685 175.883 164.734 175.805 163.328L175.844 161.375L175.805 159.539L175.883 153.172C175.883 152.365 175.805 151.531 175.648 150.672C175.362 150.281 174.841 149.943 174.086 149.656C173.331 149.37 172.016 149.161 170.141 149.031V146.844C172.823 146.688 175.18 146.128 177.211 145.164C178.591 144.539 180.089 143.432 181.703 141.844H184.32C184.424 145.073 184.477 149.266 184.477 154.422L184.203 170.359C184.203 171.453 184.255 172.443 184.359 173.328C185.167 173.615 186.482 173.901 188.305 174.188C189.008 174.292 189.568 174.422 189.984 174.578L189.945 176.727C189.242 176.753 188.721 176.766 188.383 176.766C187.992 176.766 187.393 176.74 186.586 176.688C183.93 176.557 180.375 176.492 175.922 176.492C174.646 176.492 173.409 176.544 172.211 176.648C171.013 176.727 170.193 176.766 169.75 176.766Z" fill="black"/>
</svg>
